<?xml version="1.0" encoding="UTF-8" standalone="no"?>
<!-- Created with Inkscape (http://www.inkscape.org/) -->

<svg
   xmlns:dc="http://purl.org/dc/elements/1.1/"
   xmlns:cc="http://creativecommons.org/ns#"
   xmlns:rdf="http://www.w3.org/1999/02/22-rdf-syntax-ns#"
   xmlns:svg="http://www.w3.org/2000/svg"
   xmlns="http://www.w3.org/2000/svg"
   xmlns:sodipodi="http://sodipodi.sourceforge.net/DTD/sodipodi-0.dtd"
   xmlns:inkscape="http://www.inkscape.org/namespaces/inkscape"
   width="32px"
   height="32px"
   id="svg2985"
   version="1.1"
   inkscape:version="0.48.4 r9939"
   sodipodi:docname="monsoon - Copy.svg"
   inkscape:export-filename="D:\monsoon\master\monsoon_2_256.png"
   inkscape:export-xdpi="716.29474"
   inkscape:export-ydpi="716.29474">
  <defs
     id="defs2987" />
  <sodipodi:namedview
     id="base"
     pagecolor="#ffffff"
     bordercolor="#666666"
     borderopacity="1.0"
     inkscape:pageopacity="0.0"
     inkscape:pageshadow="2"
     inkscape:zoom="1"
     inkscape:cx="-697.22329"
     inkscape:cy="-135.88251"
     inkscape:current-layer="layer1"
     showgrid="true"
     inkscape:grid-bbox="true"
     inkscape:document-units="px"
     inkscape:window-width="2560"
     inkscape:window-height="1387"
     inkscape:window-x="1912"
     inkscape:window-y="-8"
     inkscape:window-maximized="1" />
  <metadata
     id="metadata2990">
    <rdf:RDF>
      <cc:Work
         rdf:about="">
        <dc:format>image/svg+xml</dc:format>
        <dc:type
           rdf:resource="http://purl.org/dc/dcmitype/StillImage" />
        <dc:title></dc:title>
      </cc:Work>
    </rdf:RDF>
  </metadata>
  <g
     inkscape:groupmode="layer"
     id="layer3"
     inkscape:label="Layer#1"
     style="display:inline"
     sodipodi:insensitive="true">
    <rect
       style="fill:#009aff;fill-opacity:1;stroke:none"
       id="rect3888"
       width="32.224358"
       height="32.045753"
       x="-0.1541333"
       y="0.11977631" />
  </g>
  <g
     inkscape:groupmode="layer"
     id="layer2"
     inkscape:label="Layer"
     style="display:inline"
     sodipodi:insensitive="true">
    <path
       style="fill:#2e37fb;fill-opacity:1;stroke:none"
       d="M -0.06763464,1.8409306e-4 C -0.06763464,-0.08895277 32.066322,32.089304 32.066322,32.089304 l -32.09127042,0.04482 z"
       id="path3833"
       inkscape:connector-curvature="0"
       sodipodi:nodetypes="cccc" />
    <path
       sodipodi:type="arc"
       style="fill:#2e37fb;fill-opacity:1;stroke:none"
       id="path3863"
       sodipodi:cx="14.288518"
       sodipodi:cy="14.585868"
       sodipodi:rx="11.430815"
       sodipodi:ry="10.537783"
       d="m 25.719333,14.585868 a 11.430815,10.537783 0 1 1 -22.8616298,0 11.430815,10.537783 0 1 1 22.8616298,0 z"
       transform="matrix(1.0099381,0,0,1.0692506,2.1798834,-0.74217062)" />
  </g>
  <g
     id="layer1"
     inkscape:label="Layer 1"
     inkscape:groupmode="layer"
     style="display:inline">
    <path
       style="fill:#ffffff;fill-opacity:1;stroke:#37cdff;stroke-width:0.9132697;stroke-linecap:butt;stroke-linejoin:miter;stroke-miterlimit:4;stroke-opacity:0.85714285;stroke-dasharray:none"
       d="m 14.394577,25.930882 c 3.184448,-0.04572 7.598656,-0.937588 8.398609,-2.335704 0.635081,-1.109962 2.007572,-1.943093 2.525387,-6.647898 0.259387,-2.356756 0.476379,-4.300078 -0.669646,-6.256035 C 23.730697,9.1240725 21.838994,7.2122774 20.604144,6.6260797 19.506858,6.1051848 16.539626,5.5321458 14.721233,5.6566772 13.05181,5.7710066 9.4086113,7.5776629 9.4086113,7.6430621 c 0,0 -1.8242266,1.5653039 -1.9375445,3.6523839 -0.2563926,4.722219 0.7513085,6.0808 0.7513085,6.0808 1.38817,2.537165 5.1233927,5.198869 9.6622297,4.072794 3.665857,-1.451436 3.252872,-7.582532 -0.474618,-7.119779 5.250497,-3.797026 7.419075,5.898534 0.810329,9.071187 -4.286141,1.624133 -9.7070505,-1.779931 -11.6925311,-4.27841 0,0 -2.2216425,-2.373605 -1.9153443,-8.617202 0.07819,-1.5935143 2.2762946,-4.2789414 3.1838239,-5.0349742 1.4025993,-1.2423194 5.7250575,-2.1368669 6.6031735,-2.1533787 4.362228,-0.082026 8.383357,1.1416668 9.532299,2.1834998 0.710699,0.6444448 2.785798,2.5542778 3.376393,4.9231661 0.637505,2.557048 0.668869,3.659811 0.318722,6.664224 -0.698997,5.997725 -1.885481,6.835916 -3.150039,8.129948 -1.95348,1.999012 -4.628188,3.209305 -9.794258,2.819033 C 7.3175273,27.479961 3.5629654,20.945147 3.5629654,20.945147 c -0.9472,-1.7481 7.1568796,5.038494 10.8316116,4.985735 z"
       id="path2997-1"
       inkscape:connector-curvature="0"
       sodipodi:nodetypes="sssssscscccccscsssssscs" />
    <path
       style="fill:#ffffff;fill-opacity:1;stroke:#37cdff;stroke-width:0.45663482000000000;stroke-linecap:butt;stroke-linejoin:miter;stroke-miterlimit:4;stroke-opacity:0.85714287;stroke-dasharray:none"
       d="M 21.408139,11.158346 C 20.686562,10.373386 19.942576,9.8457489 18.749494,9.3121231 16.486806,8.3000985 15.659235,8.6006999 13.729667,9.2210189 12.013077,9.7728696 10.87767,11.428356 9.9558313,10.855505 9.4640788,9.5487231 10.764094,8.8892508 10.336869,9.1583762 c 1.532767,-1.2216811 2.118928,-1.1973277 3.086292,-1.6600021 1.830974,-0.324633 3.210969,-0.5799934 4.588676,-0.2247582 1.510035,0.3893554 3.582318,1.6773307 4.150059,2.3060331 1.199281,1.328057 2.150738,5.220015 1.915319,5.0443 0.0608,0 -1.730015,-2.444056 -2.669076,-3.465603 z"
       id="path3019-7"
       inkscape:connector-curvature="0"
       sodipodi:nodetypes="ssscccsscs" />
    <path
       style="fill:#ffffff;fill-opacity:1;stroke:#37cdff;stroke-width:0.45663482;stroke-linecap:butt;stroke-linejoin:miter;stroke-miterlimit:4;stroke-opacity:0.85714285;stroke-dasharray:none"
       d="m 16.462463,17.276338 c 0,0 -0.862302,0.377949 -1.720027,0.420539 -1.690068,0.08391 -2.966806,-1.096254 -3.660584,-1.741488 -1.1758506,-1.093572 -2.0701167,-3.797397 -2.0701167,-3.797397 0,0 0.095371,3.951945 1.2339667,5.369175 0.59021,0.734646 1.091251,0.794664 2.29463,1.561902 1.410426,0.899244 4.587664,-3.78e-4 4.587664,-3.78e-4 0.845225,-0.701625 2.474624,-2.53537 0.934671,-3.234539 -0.56232,0.08463 -0.623963,0.78832 -1.600204,1.422186 z"
       id="path3019-7-0"
       inkscape:connector-curvature="0"
       sodipodi:nodetypes="csscssccc" />
    <path
       style="fill:#ffffff;fill-opacity:1;stroke:#37cdff;stroke-width:0.45663482000000000;stroke-linecap:butt;stroke-linejoin:miter;stroke-miterlimit:4;stroke-opacity:0.85714287;stroke-dasharray:none;display:inline"
       d="m 17.035121,11.837038 c -0.617577,-0.119885 -2.520296,0.174425 -2.94183,0.76142 -0.834819,1.162496 -0.499506,2.480858 1.726307,2.726979 l -1.468653,0.456844 -1.163874,0.106302 c -1.990563,-0.969966 -1.590715,-2.492463 -1.027002,-3.548505 0.806684,-1.511218 3.084657,-1.969412 3.89529,-1.920108 1.449377,0.08815 4.109527,1.564669 4.109527,1.564669 0,0 -2.609188,-0.04655 -3.129765,-0.147601 z"
       id="path3019-7-9"
       inkscape:connector-curvature="0"
       sodipodi:nodetypes="sscccsscs" />
  </g>
</svg>
